<svg width="375" height="102" viewBox="0 0 375 102" fill="none" xmlns="http://www.w3.org/2000/svg">
<path d="M103.136 37.896V33.864C103.136 32.072 103.349 30.472 103.776 29.064C104.203 27.656 104.779 26.504 105.504 25.608C106.229 24.712 107.125 23.9867 108.192 23.432C109.301 22.8347 110.453 22.4293 111.648 22.216C112.885 21.96 114.272 21.8107 115.808 21.768C119.051 21.6827 122.4 21.832 125.856 22.216C129.312 22.6 132 23.0693 133.92 23.624V30.664C129.056 30.2373 123.829 30.024 118.24 30.024C115.979 29.9813 114.379 30.2373 113.44 30.792C112.544 31.304 112.096 32.5627 112.096 34.568V36.872C112.096 38.664 112.459 39.8587 113.184 40.456C113.909 41.0533 115.211 41.352 117.088 41.352H124.512C125.621 41.352 126.645 41.4587 127.584 41.672C128.565 41.8853 129.397 42.184 130.08 42.568C130.805 42.952 131.445 43.4 132 43.912C132.597 44.424 133.088 45 133.472 45.64C133.899 46.28 134.24 46.9413 134.496 47.624C134.795 48.264 135.008 48.9467 135.136 49.672C135.307 50.3973 135.413 51.1013 135.456 51.784C135.541 52.424 135.584 53.0853 135.584 53.768V56.904C135.584 58.952 135.328 60.744 134.816 62.28C134.304 63.816 133.643 65.032 132.832 65.928C132.064 66.824 131.083 67.5493 129.888 68.104C128.736 68.6587 127.584 69.0213 126.432 69.192C125.28 69.4053 124.021 69.512 122.656 69.512C114.933 69.512 108.896 68.872 104.544 67.592V60.552C109.237 61.0213 114.677 61.256 120.864 61.256C121.675 61.256 122.357 61.2133 122.912 61.128C123.509 61.0427 124.107 60.872 124.704 60.616C125.344 60.36 125.813 59.9547 126.112 59.4C126.453 58.8027 126.624 58.0773 126.624 57.224V54.728C126.624 53.2347 126.325 52.1253 125.728 51.4C125.131 50.6747 124.021 50.312 122.4 50.312H115.232C107.168 50.2693 103.136 46.1307 103.136 37.896ZM139.926 22.152H149.654L158.806 44.616L168.854 22.152H178.582L163.158 54.472V69H154.198V54.472L139.926 22.152ZM183.59 69V22.152H192.678L211.238 52.424V22.152H220.198V69H211.238L192.614 39.048V69H183.59ZM225.109 30.408V22.152H259.733V30.408H246.741V69H237.781V30.408H225.109ZM264.775 59.784V31.88C264.775 30.3013 264.988 28.9147 265.415 27.72C265.841 26.5253 266.396 25.5867 267.079 24.904C267.761 24.2213 268.551 23.6667 269.447 23.24C270.385 22.7707 271.281 22.472 272.135 22.344C273.031 22.216 273.969 22.152 274.951 22.152C285.959 22.4507 292.828 22.792 295.559 23.176V30.6H277.062C276.252 30.6 275.612 30.6853 275.143 30.856C274.673 31.0267 274.332 31.3253 274.119 31.752C273.948 32.1787 273.841 32.5413 273.799 32.84C273.756 33.1387 273.735 33.5867 273.735 34.184V41.48L292.679 42.12V49.544L273.735 50.12V57.416C273.735 58.2267 273.841 58.888 274.055 59.4C274.268 59.8693 274.609 60.2107 275.079 60.424C275.548 60.5947 275.932 60.7013 276.231 60.744C276.572 60.744 277.063 60.744 277.703 60.744H295.559V68.104C294.492 68.232 292.295 68.4027 288.967 68.616C285.639 68.7867 282.567 68.9147 279.751 69L275.591 69.192C274.609 69.2347 273.692 69.2133 272.839 69.128C271.985 69.0427 271.047 68.808 270.023 68.424C268.999 68.04 268.103 67.528 267.335 66.888C266.609 66.248 265.991 65.3307 265.479 64.136C265.009 62.8987 264.775 61.448 264.775 59.784ZM299.999 45.448C299.999 42.2907 300.127 39.5387 300.383 37.192C300.682 34.8453 301.194 32.6693 301.919 30.664C302.644 28.616 303.604 26.952 304.799 25.672C305.994 24.392 307.508 23.4107 309.343 22.728C311.22 22.0027 313.418 21.64 315.935 21.64C322.036 21.64 327.476 22.344 332.255 23.752V30.792C332.255 30.792 332.148 30.792 331.935 30.792C331.764 30.7493 331.508 30.7067 331.167 30.664C330.826 30.6213 330.42 30.5787 329.951 30.536C329.482 30.4933 328.948 30.4507 328.351 30.408C327.754 30.3653 327.135 30.3227 326.495 30.28C325.855 30.2373 325.172 30.1947 324.447 30.152C323.764 30.1093 323.06 30.0667 322.335 30.024C321.652 29.9813 320.927 29.96 320.159 29.96C319.391 29.9173 318.687 29.896 318.047 29.896C316.852 29.896 315.85 29.96 315.039 30.088C314.271 30.1733 313.503 30.408 312.735 30.792C312.01 31.176 311.434 31.7307 311.007 32.456C310.58 33.1387 310.196 34.056 309.855 35.208C309.514 36.36 309.279 37.7893 309.151 39.496C309.023 41.16 308.959 43.1867 308.959 45.576C308.959 51.1227 309.578 55.112 310.815 57.544C312.095 59.9333 314.506 61.128 318.047 61.128C320.052 61.128 322.228 61.0853 324.575 61C326.964 60.9147 328.842 60.8293 330.207 60.744L332.255 60.616V67.592C328.074 68.872 322.634 69.4693 315.935 69.384C313.034 69.3413 310.538 68.7867 308.447 67.72C306.356 66.6107 304.692 65.0107 303.455 62.92C302.26 60.7867 301.386 58.312 300.831 55.496C300.276 52.6373 299.999 49.288 299.999 45.448ZM337.778 69V22.152H346.738V42.248H362.802V22.152H371.762V69H362.802V50.44H346.738V69H337.778Z" fill="white"/>
<path d="M26.701 23.4413L2.37662 45.6035C1.09151 46.7744 1.06758 48.789 2.32452 49.9901L26.6901 73.2727C27.2482 73.8061 27.9906 74.1037 28.7626 74.1037H40.508C43.2646 74.1037 44.5619 70.6983 42.5041 68.8642L22.6639 51.1805C21.3466 50.0064 21.3223 47.9544 22.6114 46.7494L42.8289 27.8505C44.8172 25.9918 43.5019 22.6589 40.7802 22.6589H28.7215C27.974 22.6589 27.2535 22.9379 26.701 23.4413Z" fill="#0F12AF"/>
<path d="M67.9754 72.8565L92.137 50.5169C93.4135 49.3366 93.4227 47.3219 92.157 46.13L67.6217 23.0263C67.0596 22.497 66.3152 22.2048 65.5431 22.2105L53.798 22.2964C51.0416 22.3166 49.7692 25.7314 51.8403 27.5504L71.8094 45.0884C73.1353 46.2529 73.1746 48.3046 71.8943 49.5191L51.8157 68.5654C49.8411 70.4385 51.1806 73.7618 53.9023 73.7419L65.9607 73.6536C66.7081 73.6482 67.4266 73.3639 67.9754 72.8565Z" fill="#0F12AF"/>
<rect x="47.7126" y="36.1325" width="17.1483" height="17.1483" rx="2" transform="rotate(45.3097 47.7126 36.1325)" fill="#0F12AF"/>
</svg>
